<svg id="visual" viewBox="0 0 960 540" width="960" height="540" xmlns="http://www.w3.org/2000/svg" xmlns:xlink="http://www.w3.org/1999/xlink" version="1.1"><rect width="960" height="540" fill="#FFFFFF"></rect><g><g transform="translate(213 483)"><path d="M0 -31.3L27.1 -15.7L27.1 15.7L0 31.3L-27.1 15.7L-27.1 -15.7Z" fill="none" stroke="#715DF2" stroke-width="3"></path></g><g transform="translate(82 223)"><path d="M0 -28L24.2 -14L24.2 14L0 28L-24.2 14L-24.2 -14Z" fill="none" stroke="#715DF2" stroke-width="3"></path></g><g transform="translate(846 417)"><path d="M0 -17L14.7 -8.5L14.7 8.5L0 17L-14.7 8.5L-14.7 -8.5Z" stroke="#715DF2" fill="none" stroke-width="3"></path></g><g transform="translate(760 263)"><path d="M0 -13L11.3 -6.5L11.3 6.5L0 13L-11.3 6.5L-11.3 -6.5Z" stroke="#715DF2" fill="none" stroke-width="3"></path></g><g transform="translate(921 379)"><path d="M0 -19L16.5 -9.5L16.5 9.5L0 19L-16.5 9.5L-16.5 -9.5Z" stroke="#715DF2" fill="none" stroke-width="3"></path></g><g transform="translate(484 492)"><path d="M0 -18L15.6 -9L15.6 9L0 18L-15.6 9L-15.6 -9Z" stroke="#715DF2" fill="none" stroke-width="3"></path></g><g transform="translate(761 398)"><path d="M0 -3L2.6 -1.5L2.6 1.5L0 3L-2.6 1.5L-2.6 -1.5Z" stroke="#715DF2" fill="none" stroke-width="3"></path></g><g transform="translate(515 436)"><path d="M0 -22L19.1 -11L19.1 11L0 22L-19.1 11L-19.1 -11Z" stroke="#715DF2" fill="none" stroke-width="3"></path></g><g transform="translate(420 446)"><path d="M0 -29L25.1 -14.5L25.1 14.5L0 29L-25.1 14.5L-25.1 -14.5Z" stroke="#715DF2" fill="none" stroke-width="3"></path></g><g transform="translate(721 187)"><path d="M0 -9L7.8 -4.5L7.8 4.5L0 9L-7.8 4.5L-7.8 -4.5Z" stroke="#715DF2" fill="none" stroke-width="3"></path></g></g></svg>